<?xml version="1.0" encoding="UTF-8" standalone="no"?>
<svg width="449px" height="449px" viewBox="0 0 449 449" version="1.1" xmlns="http://www.w3.org/2000/svg" xmlns:xlink="http://www.w3.org/1999/xlink" xmlns:sketch="http://www.bohemiancoding.com/sketch/ns">
    <!-- Generator: Sketch 3.3.3 (12072) - http://www.bohemiancoding.com/sketch -->
    <title>Clock face blanksvg</title>
    <desc>Created with Sketch.</desc>
    <defs></defs>
    <g id="Page-2" stroke="none" stroke-width="1" fill="none" fill-rule="evenodd" sketch:type="MSPage">
        <g id="Clock-Copy-3" sketch:type="MSArtboardGroup" transform="translate(-1039.000000, -145.000000)">
            <ellipse id="Rim-of-clock" stroke="#979797" fill="#000000" sketch:type="MSShapeGroup" cx="1263.5" cy="369.5" rx="222.5" ry="222.5"></ellipse>
            <circle id="Clock-face" stroke="#979797" fill="#FFFFFF" sketch:type="MSShapeGroup" cx="1263.5" cy="369.5" r="195.5"></circle>
            <path d="M1259,544 L1268,544 L1268,553 L1259,553 L1259,544 Z M1172.33953,518 L1179.85581,522.339527 L1175.51628,529.855808 L1168,525.516281 L1172.33953,518 Z M1110.51628,453 L1114.85581,460.516281 L1107.33953,464.855808 L1103,457.339527 L1110.51628,453 Z M1088.67905,365 L1088.67905,373.679054 L1080,373.679054 L1080,365 L1088.67905,365 Z M1114.85581,278.339527 L1110.51628,285.855808 L1103,281.516281 L1107.33953,274 L1114.85581,278.339527 Z M1179.85581,216.516281 L1172.33953,220.855808 L1168,213.339527 L1175.51628,209 L1179.85581,216.516281 Z M1267.67905,194.679054 L1259,194.679054 L1259,186 L1267.67905,186 L1267.67905,194.679054 Z M1354.51628,220.855808 L1347,216.516281 L1351.33953,209 L1358.85581,213.339527 L1354.51628,220.855808 Z M1416.33953,285.855808 L1412,278.339527 L1419.51628,274 L1423.85581,281.516281 L1416.33953,285.855808 Z M1438,373.679054 L1438,365 L1446.67905,365 L1446.67905,373.679054 L1438,373.679054 Z M1412,460.516281 L1416.33953,453 L1423.85581,457.339527 L1419.51628,464.855808 L1412,460.516281 Z M1347,522.339527 L1354.51628,518 L1358.85581,525.516281 L1351.33953,529.855808 L1347,522.339527 Z" id="Clock-dashes" stroke="#000000" fill="#000000" sketch:type="MSShapeGroup"></path>
                <text id="12" sketch:type="MSTextLayer" font-family="Helvetica" font-size="42" font-weight="normal" fill="#000000">
                    <tspan x="1237" y="233">12</tspan>
                </text>
                <text id="10-copy-2" sketch:type="MSTextLayer" font-family="Helvetica" font-size="42" font-weight="normal" fill="#000000">
                    <tspan x="1115" y="311">10</tspan>
                </text>
                <text id="11-copy-2" sketch:type="MSTextLayer" font-family="Helvetica" font-size="42" font-weight="normal" fill="#000000">
                    <tspan x="1172" y="253">11</tspan>
                </text>
                <text id="1-copy-2" sketch:type="MSTextLayer" font-family="Helvetica" font-size="42" font-weight="normal" fill="#000000">
                    <tspan x="1331" y="253">1</tspan>
                </text>
                <text id="2-copy-2" sketch:type="MSTextLayer" font-family="Helvetica" font-size="42" font-weight="normal" fill="#000000">
                    <tspan x="1388" y="311">2</tspan>
                </text>
                <text id="3-copy-2" sketch:type="MSTextLayer" font-family="Helvetica" font-size="42" font-weight="normal" fill="#000000">
                    <tspan x="1409" y="385">3</tspan>
                </text>
                <text id="4-copy-2" sketch:type="MSTextLayer" font-family="Helvetica" font-size="42" font-weight="normal" fill="#000000">
                    <tspan x="1388" y="458">4</tspan>
                </text>
                <text id="5-copy-2" sketch:type="MSTextLayer" font-family="Helvetica" font-size="42" font-weight="normal" fill="#000000">
                    <tspan x="1331" y="516">5</tspan>
                </text>
                <text id="6-copy-2" sketch:type="MSTextLayer" font-family="Helvetica" font-size="42" font-weight="normal" fill="#000000">
                    <tspan x="1252" y="535.2">6</tspan>
                </text>
                <text id="7-copy-2" sketch:type="MSTextLayer" font-family="Helvetica" font-size="42" font-weight="normal" fill="#000000">
                    <tspan x="1172" y="516">7</tspan>
                </text>
                <text id="8-copy-2" sketch:type="MSTextLayer" font-family="Helvetica" font-size="42" font-weight="normal" fill="#000000">
                    <tspan x="1115" y="458">8</tspan>
                </text>
                <text id="9-copy-2" sketch:type="MSTextLayer" font-family="Helvetica" font-size="42" font-weight="normal" fill="#000000">
                    <tspan x="1095" y="385">9</tspan>
                </text>
        </g>
    </g>
</svg>